<svg width="350" height="133" viewBox="0 0 350 133" fill="none" xmlns="http://www.w3.org/2000/svg">
<path d="M10.1 42.4L11.6 30.4H24.7L23.2 42.4H10.1ZM14.7 105.6H3.2L10.1 49.9H21.6L14.7 105.6ZM131.345 49.5C138.211 49.5 143.378 51.1333 146.845 54.4C150.378 57.6 152.145 62.3667 152.145 68.7C152.145 70.1667 152.045 71.7667 151.845 73.5L150.745 82.5H113.445V82.6C113.311 84.0667 113.245 85.0667 113.245 85.6C113.245 89 114.211 91.5333 116.145 93.2C118.145 94.8 121.478 95.6 126.145 95.6H131.045C134.511 95.6 139.778 95.3 146.845 94.7L145.745 105.1C139.878 105.7 134.611 106 129.945 106H125.045C116.978 106 111.045 104.367 107.245 101.1C103.511 97.8333 101.645 93.0333 101.645 86.7C101.645 85.1667 101.745 83.6 101.945 82L102.945 73.6C103.878 65.6 106.511 59.6 110.845 55.6C115.178 51.5333 121.345 49.5 129.345 49.5H131.345ZM140.445 72.8V72.7C140.578 71.2333 140.645 70.1667 140.645 69.5C140.645 66.3 139.778 63.8667 138.045 62.2C136.378 60.5333 133.711 59.7 130.045 59.7H128.045C120.178 59.7 115.711 64.0667 114.645 72.8H140.445ZM171.085 106C164.952 105.867 159.652 105.6 155.185 105.2L156.685 94.4C163.218 95 168.452 95.3667 172.385 95.5H175.785C180.052 95.5 183.018 94.9667 184.685 93.9C186.418 92.8333 187.485 91.3 187.885 89.3C187.952 88.9667 187.985 88.5 187.985 87.9C187.985 86.2333 187.718 85.1333 187.185 84.6C186.718 83.8667 185.952 83.3667 184.885 83.1C183.818 82.8333 181.785 82.5333 178.785 82.2L176.485 81.9C173.018 81.6333 169.718 81.0333 166.585 80.1C164.118 79.1667 162.285 77.8333 161.085 76.1C159.885 74.3 159.285 71.9333 159.285 69C159.285 68.4 159.352 67.3667 159.485 65.9C159.952 61.8333 161.118 58.6667 162.985 56.4C164.852 54.0667 167.452 52.4 170.785 51.4C174.118 50.4 178.418 49.9 183.685 49.9H187.785L201.885 50L200.585 60.6H182.385C179.452 60.6 177.218 60.7667 175.685 61.1C174.152 61.3667 173.018 61.8667 172.285 62.6C171.618 63.2667 171.185 64.2667 170.985 65.6C170.918 65.9333 170.885 66.3667 170.885 66.9C170.885 67.9667 171.185 68.8667 171.785 69.6C172.452 70.4 173.418 70.9667 174.685 71.3C176.018 71.5667 178.452 71.9 181.985 72.3C186.185 72.7 189.618 73.3333 192.285 74.2C194.618 75 196.385 76.3667 197.585 78.3C198.852 80.2333 199.485 82.7333 199.485 85.8C199.485 87.2667 199.418 88.4 199.285 89.2C198.485 95.4 196.152 99.7333 192.285 102.2C188.418 104.733 182.485 106 174.485 106H171.085ZM214.495 42.4L215.995 30.4H229.095L227.595 42.4H214.495ZM219.095 105.6H207.595L214.495 49.9H225.995L219.095 105.6ZM234.192 74C235.926 57.9333 244.792 49.9 260.792 49.9H284.692L277.392 109.5C276.659 114.9 274.426 119.167 270.692 122.3C267.026 125.433 261.459 127 253.992 127C247.392 127 241.159 126.733 235.292 126.2L236.492 115.8C242.892 116.4 248.959 116.7 254.692 116.7C258.359 116.7 261.059 116.1 262.792 114.9C264.526 113.7 265.559 111.8 265.892 109.2L266.292 105.6H253.792C239.992 105.6 233.092 99.1667 233.092 86.3C233.092 84.8333 233.192 83.2667 233.392 81.6L234.192 74ZM267.592 95.1L271.892 60.4H259.492C251.292 60.4 246.726 64.8333 245.792 73.7L244.892 81.9C244.759 83.2333 244.692 84.1333 244.692 84.6C244.692 91.6 248.159 95.1 255.092 95.1H267.592ZM307.3 60.6L301.9 105.6H290.4L297.2 49.9H322.3C336.1 49.9 343 56.2333 343 68.9C343 70.4333 342.9 72.1 342.7 73.9L338.8 105.6H327.3L331.2 73.6C331.333 72.2667 331.4 71.3333 331.4 70.8C331.4 64 327.933 60.6 321 60.6H307.3Z" fill="black"/>
<path d="M69.0977 30.5C77.8977 30.5667 84.3643 32.5 88.4977 36.3C92.631 40.0333 94.6977 45.9333 94.6977 54C94.6977 56.0667 94.531 58.6 94.1977 61.6L92.6977 74.5C91.231 85.3667 87.8977 93.2667 82.6977 98.2C77.4977 103.067 69.8643 105.533 59.7977 105.6H28.8977L38.0977 30.5H69.0977ZM61.2977 94.6C67.3643 94.6 71.8977 93.0667 74.8977 90C77.8977 86.9333 79.831 81.9667 80.6977 75.1L82.4977 61C82.7643 58.3333 82.8977 56.4667 82.8977 55.4C82.8977 50.5333 81.731 47 79.3977 44.8C77.131 42.6 73.3643 41.5 68.0977 41.5H48.5977L41.9977 94.6H61.2977Z" fill="#1BC47D"/>
</svg>
