<svg width="259" height="313" viewBox="0 0 259 313" fill="none" xmlns="http://www.w3.org/2000/svg">
<path d="M130.046 99.689L173.568 56.035L217.09 99.689L173.568 143.343L130.046 99.689Z" fill="#09A6FF"/>
<path d="M43 99.652L86.5609 55.959L130.122 99.652L86.5609 143.345L43 99.652Z" fill="#6E8BF1"/>
<path d="M86.5605 143.307L130.121 99.615L173.682 143.307L130.121 187L86.5605 143.307Z" fill="#3B41EC"/>
<path d="M86.5229 55.9981L130.084 12.3051L173.645 55.9981L130.084 99.6911L86.5229 55.9981Z" fill="#47D2B3"/>
<path d="M11.3697 239.088L12.4497 230.448H21.8817L20.8017 239.088H11.3697ZM14.6817 284.592H6.40166L11.3697 244.488H19.6497L14.6817 284.592ZM98.6657 244.2C103.61 244.2 107.33 245.376 109.826 247.728C112.37 250.032 113.642 253.464 113.642 258.024C113.642 259.08 113.57 260.232 113.426 261.48L112.634 267.96H85.7777V268.032C85.6817 269.088 85.6337 269.808 85.6337 270.192C85.6337 272.64 86.3297 274.464 87.7217 275.664C89.1617 276.816 91.5617 277.392 94.9217 277.392H98.4497C100.946 277.392 104.738 277.176 109.826 276.744L109.034 284.232C104.81 284.664 101.018 284.88 97.6577 284.88H94.1297C88.3217 284.88 84.0497 283.704 81.3137 281.352C78.6257 279 77.2817 275.544 77.2817 270.984C77.2817 269.88 77.3537 268.752 77.4977 267.6L78.2177 261.552C78.8897 255.792 80.7857 251.472 83.9057 248.592C87.0257 245.664 91.4657 244.2 97.2257 244.2H98.6657ZM105.218 260.976V260.904C105.314 259.848 105.362 259.08 105.362 258.6C105.362 256.296 104.738 254.544 103.49 253.344C102.29 252.144 100.37 251.544 97.7297 251.544H96.2897C90.6257 251.544 87.4097 254.688 86.6417 260.976H105.218ZM127.279 284.88C122.863 284.784 119.047 284.592 115.831 284.304L116.911 276.528C121.615 276.96 125.383 277.224 128.215 277.32H130.663C133.735 277.32 135.871 276.936 137.071 276.168C138.319 275.4 139.087 274.296 139.375 272.856C139.423 272.616 139.447 272.28 139.447 271.848C139.447 270.648 139.255 269.856 138.871 269.472C138.535 268.944 137.983 268.584 137.215 268.392C136.447 268.2 134.983 267.984 132.823 267.744L131.167 267.528C128.671 267.336 126.295 266.904 124.039 266.232C122.263 265.56 120.943 264.6 120.079 263.352C119.215 262.056 118.783 260.352 118.783 258.24C118.783 257.808 118.831 257.064 118.927 256.008C119.263 253.08 120.103 250.8 121.447 249.168C122.791 247.488 124.663 246.288 127.063 245.568C129.463 244.848 132.559 244.488 136.351 244.488H139.303L149.455 244.56L148.519 252.192H135.415C133.303 252.192 131.695 252.312 130.591 252.552C129.487 252.744 128.671 253.104 128.143 253.632C127.663 254.112 127.351 254.832 127.207 255.792C127.159 256.032 127.135 256.344 127.135 256.728C127.135 257.496 127.351 258.144 127.783 258.672C128.263 259.248 128.959 259.656 129.871 259.896C130.831 260.088 132.583 260.328 135.127 260.616C138.151 260.904 140.623 261.36 142.543 261.984C144.223 262.56 145.495 263.544 146.359 264.936C147.271 266.328 147.727 268.128 147.727 270.336C147.727 271.392 147.679 272.208 147.583 272.784C147.007 277.248 145.327 280.368 142.543 282.144C139.759 283.968 135.487 284.88 129.727 284.88H127.279ZM158.534 239.088L159.614 230.448H169.046L167.966 239.088H158.534ZM161.846 284.592H153.566L158.534 244.488H166.814L161.846 284.592ZM172.716 261.84C173.964 250.272 180.348 244.488 191.868 244.488H209.076L203.82 287.4C203.292 291.288 201.684 294.36 198.996 296.616C196.356 298.872 192.348 300 186.972 300C182.22 300 177.732 299.808 173.508 299.424L174.372 291.936C178.98 292.368 183.348 292.584 187.476 292.584C190.116 292.584 192.06 292.152 193.308 291.288C194.556 290.424 195.3 289.056 195.54 287.184L195.828 284.592H186.828C176.892 284.592 171.924 279.96 171.924 270.696C171.924 269.64 171.996 268.512 172.14 267.312L172.716 261.84ZM196.764 277.032L199.86 252.048H190.932C185.028 252.048 181.74 255.24 181.068 261.624L180.42 267.528C180.324 268.488 180.276 269.136 180.276 269.472C180.276 274.512 182.772 277.032 187.764 277.032H196.764ZM225.354 252.192L221.466 284.592H213.186L218.082 244.488H236.154C246.09 244.488 251.058 249.048 251.058 258.168C251.058 259.272 250.986 260.472 250.842 261.768L248.034 284.592H239.754L242.562 261.552C242.658 260.592 242.706 259.92 242.706 259.536C242.706 254.64 240.21 252.192 235.218 252.192H225.354Z" fill="white"/>
<path d="M53.848 230.52C60.184 230.568 64.84 231.96 67.816 234.696C70.792 237.384 72.28 241.632 72.28 247.44C72.28 248.928 72.16 250.752 71.92 252.912L70.84 262.2C69.784 270.024 67.384 275.712 63.64 279.264C59.896 282.768 54.4 284.544 47.152 284.592H24.904L31.528 230.52H53.848ZM48.232 276.672C52.6 276.672 55.864 275.568 58.024 273.36C60.184 271.152 61.576 267.576 62.2 262.632L63.496 252.48C63.688 250.56 63.784 249.216 63.784 248.448C63.784 244.944 62.944 242.4 61.264 240.816C59.632 239.232 56.92 238.44 53.128 238.44H39.088L34.336 276.672H48.232Z" fill="#1BC47D"/>
</svg>
